<svg xmlns="http://www.w3.org/2000/svg" viewBox="0 0 166.47 59.65"><defs><style>.cls-1{fill:#ff0b0b;}</style></defs><title>Asset 1</title><g id="Layer_2" data-name="Layer 2"><g id="Layer_1-2" data-name="Layer 1"><polygon class="cls-1" points="76.2 14.2 76.2 2.83 64.21 2.83 64.21 14.2 64.21 25.56 64.21 36.92 64.21 48.29 64.21 59.65 76.2 59.65 76.2 48.29 76.2 36.92 76.2 25.56 88.2 25.56 88.2 14.2 76.2 14.2"/><polygon class="cls-1" points="100.19 2.83 100.19 14.2 100.19 25.56 88.2 25.56 88.2 36.92 100.19 36.92 100.19 48.29 100.19 59.65 112.19 59.65 112.19 48.29 112.19 36.92 112.19 25.56 112.19 14.2 112.19 2.83 100.19 2.83"/><rect x="11.89" y="11.89" width="11.89" height="11.89"/><rect x="23.78" width="11.89" height="11.89"/><rect y="23.78" width="11.89" height="11.74"/><rect x="23.78" y="47.41" width="11.89" height="11.89"/><rect x="11.89" y="35.52" width="11.89" height="11.89"/><rect x="130.8" y="47.41" width="11.89" height="11.89"/><rect x="130.8" width="11.89" height="11.89"/><rect x="142.69" y="11.89" width="11.89" height="11.74"/><rect x="154.58" y="23.63" width="11.89" height="11.89"/><rect x="142.69" y="35.52" width="11.89" height="11.89"/><polygon points="73.68 11.67 73.68 0.31 61.68 0.31 61.68 11.67 61.68 23.04 61.68 34.4 61.68 45.76 61.68 57.12 73.68 57.12 73.68 45.76 73.68 34.4 73.68 23.04 85.67 23.04 85.67 11.67 73.68 11.67"/><polygon points="97.67 11.67 97.67 23.04 85.67 23.04 85.67 34.4 97.67 34.4 97.67 45.76 97.67 57.12 109.66 57.12 109.66 45.76 109.66 34.4 109.66 23.04 109.66 11.67 109.66 0.31 97.67 0.31 97.67 11.67"/></g></g></svg>